<svg height="500px" width="500px" version="1.1" id="_x35_"
  xmlns="http://www.w3.org/2000/svg" xmlns:xlink="http://www.w3.org/1999/xlink"
  viewBox="0 0 512 512"
  xml:space="preserve">
            <g>
              <g>
                <path style="fill:#EF8DB0;" d="M172.873,506.693c-52.659,0-95.501-42.84-95.501-95.5V283.86c0-52.663,42.842-95.501,95.501-95.501
			h166.246c52.659,0,95.501,42.838,95.501,95.501v127.333c0,52.66-42.842,95.5-95.501,95.5H172.873z" />
                <path style="fill:#AF8289;" d="M392.176,411.193c0,29.298-23.752,53.058-53.05,53.058H172.88
			c-29.298,0-53.058-23.76-53.058-53.058V283.86c0-29.301,23.76-53.057,53.058-53.057h166.246c29.298,0,53.05,23.756,53.05,53.057
			V411.193z" />
                <path style="fill:#EF8DB0;" d="M435.104,2.118c-8.717,10.465-60.914,68.666-60.914,68.666H269.526h-27.03H137.817
			c0,0-52.205-58.201-60.913-68.666C68.18-8.343,36.806,21.295,43.788,61.4c6.96,40.108,40.232,40.915,40.232,40.915v116.86h158.477
			h27.03h158.461v-116.86c0,0,33.258-0.807,40.247-40.915C475.192,21.295,443.827-8.343,435.104,2.118z" />
                <path style="fill:#F5F4F8;" d="M188.294,336.497c0,10.758-8.724,19.476-19.48,19.476l0,0c-10.75,0-19.473-8.719-19.473-19.476
			v-48.226c0-10.76,8.723-19.476,19.473-19.476l0,0c10.756,0,19.48,8.716,19.48,19.476V336.497z" />
                <path style="fill:#F5F4F8;" d="M362.658,332.79c0,10.758-8.723,19.474-19.479,19.474l0,0c-10.749,0-19.472-8.716-19.472-19.474
			v-48.226c0-10.76,8.723-19.479,19.472-19.479l0,0c10.756,0,19.479,8.719,19.479,19.479V332.79z" />
                <path style="fill:#F5F4F8;" d="M192.367,443.423c0,9.843-7.977,17.82-17.822,17.82l0,0c-9.833,0-17.817-7.977-17.817-17.82v-44.12
			c0-9.844,7.984-17.82,17.817-17.82l0,0c9.846,0,17.822,7.976,17.822,17.82V443.423z" />
                <path style="fill:#F5F4F8;" d="M355.279,443.423c0,9.843-7.97,17.82-17.816,17.82l0,0c-9.832,0-17.823-7.977-17.823-17.82v-44.12
			c0-9.844,7.99-17.82,17.823-17.82l0,0c9.846,0,17.816,7.976,17.816,17.82V443.423z" />
                <g>
                  <path style="fill:#DE6085;" d="M434.52,186.717h-35.035c-9.633-14.528-26.113-24.115-44.853-24.115
				c-18.726,0-35.213,9.587-44.846,24.115h-45.557h-16.451h-45.564c-9.634-14.528-26.106-24.115-44.854-24.115
				c-18.726,0-35.206,9.587-44.839,24.115H77.487c-21.784,0-39.443,17.656-39.443,39.432v32.167
				c0,21.779,17.659,39.436,39.443,39.436h170.291h16.451H434.52c21.776,0,39.436-17.656,39.436-39.436v-32.167
				C473.956,204.374,456.296,186.717,434.52,186.717z" />
                  <path style="fill:#A45571;" d="M354.632,236.796c-11.247,0-20.397-9.153-20.397-20.4c0-11.254,9.15-20.404,20.397-20.404
				c11.254,0,20.412,9.15,20.412,20.404C375.044,227.642,365.886,236.796,354.632,236.796z" />
                </g>
                <path style="fill:#DE6085;" d="M263.404,420.126h-14.803H99.32c-21.777,0-39.436,17.656-39.436,39.436v13.007
			C59.884,494.345,77.543,512,99.32,512h149.281h14.803h149.27c21.782,0,39.434-17.655,39.434-39.432v-13.007
			c0-21.779-17.652-39.436-39.434-39.436H263.404z" />
                <g>
                  <path style="fill:#564236;"
                    d="M375.156,121.243h22.638l-7.324,9.92c0.946,2.108,1.487,4.415,1.487,6.857
				c0,9.279-7.514,16.807-16.8,16.807c-9.27,0-16.791-7.528-16.791-16.807C358.365,128.761,365.886,121.243,375.156,121.243z" />
                </g>
                <path style="fill:#A45571;" d="M157.36,236.796c-11.247,0-20.396-9.153-20.396-20.4c0-11.254,9.15-20.404,20.396-20.404
			c11.262,0,20.412,9.15,20.412,20.404C177.772,227.642,168.622,236.796,157.36,236.796z" />
                <g>
                  <path style="fill:#564236;"
                    d="M136.85,121.243h-22.637l7.322,9.92c-0.952,2.108-1.492,4.415-1.492,6.857
				c0,9.279,7.514,16.807,16.807,16.807c9.263,0,16.785-7.528,16.785-16.807C153.635,128.761,146.113,121.243,136.85,121.243z" />
                </g>
              </g>
              <path style="opacity:0.08;fill:#564236;" d="M434.52,186.717h-6.534v-84.403c0,0,33.258-0.807,40.247-40.915
		c6.959-40.104-24.406-69.743-33.129-59.282c-8.717,10.465-60.914,68.666-60.914,68.666H269.526h-8.567V512h2.446h149.27
		c21.782,0,39.434-17.655,39.434-39.432v-13.007c0-14.194-7.514-26.592-18.761-33.538c0.761-4.844,1.273-9.776,1.273-14.83V297.744
		c21.74-0.056,39.336-17.684,39.336-39.428v-32.167C473.956,204.374,456.296,186.717,434.52,186.717z" />
            </g>
          </svg>